<?xml version="1.0" standalone="no"?><!DOCTYPE svg PUBLIC "-//W3C//DTD SVG 1.1//EN" "http://www.w3.org/Graphics/SVG/1.1/DTD/svg11.dtd"><svg t="1605427301631" class="icon" viewBox="0 0 1024 1024" version="1.1" xmlns="http://www.w3.org/2000/svg" p-id="1149" xmlns:xlink="http://www.w3.org/1999/xlink" width="200" height="200"><defs><style type="text/css"></style></defs><path d="M956.8 832 800 598.4 800 352c0-160-128-288-288-288s-288 128-288 288l0 246.4L67.2 832l288 0c16 73.6 80 128 156.8 128s140.8-54.4 156.8-128L956.8 832zM288 617.6 288 352c0-124.8 99.2-224 224-224s224 99.2 224 224l0 265.6 99.2 150.4L188.8 768 288 617.6zM512 896c-41.6 0-76.8-25.6-89.6-64l179.2 0C588.8 870.4 553.6 896 512 896z" p-id="1150" fill="#8a8a8a"></path></svg>